HIERARCHY
ROOT Hips
{
	OFFSET 0.000000 0.000000 0.000000
	CHANNELS 6 Xposition Yposition Zposition Zrotation Yrotation Xrotation 
	JOINT LeftUpLeg_virtual
	{
		OFFSET 0.000000 0.000000 0.000000
		CHANNELS 3 Zrotation Yrotation Xrotation
		JOINT LeftUpLeg
		{
			OFFSET 10.205400 -3.823500 0.155100
			CHANNELS 3 Zrotation Yrotation Xrotation
			JOINT LeftLeg
			{
				OFFSET 0.708757 -12.982077 0.567790
				CHANNELS 3 Zrotation Yrotation Xrotation
				JOINT LeftFoot
				{
					OFFSET -0.708756 -10.717838 -2.184338
					CHANNELS 3 Zrotation Yrotation Xrotation
					JOINT LeftToeBase
					{
						OFFSET 0.108149 -7.191104 7.560241
						CHANNELS 3 Zrotation Yrotation Xrotation
						End Site
						{
							OFFSET 0.000000 0.000000 0.000000
						}
					}
				}
			}
		}
	}
	JOINT RightUpLeg_virtual
	{
		OFFSET 0.000000 0.000000 0.000000
		CHANNELS 3 Zrotation Yrotation Xrotation
		JOINT RightUpLeg
		{
			OFFSET -10.205400 -3.823500 0.005500
			CHANNELS 3 Zrotation Yrotation Xrotation
			JOINT RightLeg
			{
				OFFSET -0.708756 -12.982134 0.610632
				CHANNELS 3 Zrotation Yrotation Xrotation
				JOINT RightFoot
				{
					OFFSET 0.708754 -10.717769 -1.945823
					CHANNELS 3 Zrotation Yrotation Xrotation
					JOINT RightToeBase
					{
						OFFSET -0.108140 -7.191069 7.372968
						CHANNELS 3 Zrotation Yrotation Xrotation
						End Site
						{
							OFFSET 0.000000 0.000000 0.000000
						}
					}
				}
			}
		}
	}
	JOINT Spine_virtual
	{
		OFFSET 0.000000 0.000000 0.000000
		CHANNELS 3 Zrotation Yrotation Xrotation
		JOINT Spine
		{
			OFFSET 0.000000 6.876099 0.125700
			CHANNELS 3 Zrotation Yrotation Xrotation
			JOINT Spine1
			{
				OFFSET 0.000000 8.022060 0.146608
				CHANNELS 3 Zrotation Yrotation Xrotation
				JOINT Spine2
				{
					OFFSET 0.000000 9.168068 0.167552
					CHANNELS 3 Zrotation Yrotation Xrotation
					JOINT Neck_virtual
					{
						OFFSET 0.000000 0.000000 0.000000
						CHANNELS 3 Zrotation Yrotation Xrotation
						JOINT Neck
						{
							OFFSET 0.000000 10.314075 0.188496
							CHANNELS 3 Zrotation Yrotation Xrotation
							JOINT Head
							{
								OFFSET 0.000000 7.643700 -2.377400
								CHANNELS 3 Zrotation Yrotation Xrotation
								End Site
								{
									OFFSET 0.000000 0.000000 0.000000
								}
							}
						}
					}
					JOINT LeftShoulder_virtual
					{
						OFFSET 0.000000 0.000000 0.000000
						CHANNELS 3 Zrotation Yrotation Xrotation
						JOINT LeftShoulder
						{
							OFFSET 4.392200 8.824978 0.174984
							CHANNELS 3 Zrotation Yrotation Xrotation
							JOINT LeftArm
							{
								OFFSET 8.771219 -2.981674 -0.026999
								CHANNELS 3 Zrotation Yrotation Xrotation
								JOINT LeftForeArm
								{
									OFFSET 8.512804 0.000000 -0.000000
									CHANNELS 3 Zrotation Yrotation Xrotation
									JOINT LeftHand
									{
										OFFSET 18.484802 0.000000 -0.000000
										CHANNELS 3 Zrotation Yrotation Xrotation
										End Site
										{
											OFFSET 0.000000 0.000000 0.000000
										}
									}
								}
							}
						}
					}
					JOINT RightShoulder_virtual
					{
						OFFSET 0.000000 0.000000 0.000000
						CHANNELS 3 Zrotation Yrotation Xrotation
						JOINT RightShoulder
						{
							OFFSET -4.392200 8.824993 0.141379
							CHANNELS 3 Zrotation Yrotation Xrotation
							JOINT RightArm
							{
								OFFSET -8.771282 -2.981682 -0.094208
								CHANNELS 3 Zrotation Yrotation Xrotation
								JOINT RightForeArm
								{
									OFFSET -8.494598 0.000000 0.000000
									CHANNELS 3 Zrotation Yrotation Xrotation
									JOINT RightHand
									{
										OFFSET -18.483803 0.000000 0.000001
										CHANNELS 3 Zrotation Yrotation Xrotation
										End Site
										{
											OFFSET 0.000000 0.000000 0.000000
										}
									}
								}
							}
						}
					}
				}
			}
		}
	}
}
MOTION
Frames: 9
Frame Time: 0.033333
26.660244 36.642483 27.370995 -179.969447 2.533344 179.910352 -4.076195 -0.337044 9.379881 -4.667526 -4.010091 -17.866221 10.480323 7.509685 11.945853 -7.266701 3.627564 14.916211 0.000000 0.000000 0.000000 0.966657 1.400537 7.822207 2.327210 -1.112997 -3.774270 -9.259272 -1.798751 7.602735 7.642931 8.009934 8.341937 0.000000 0.000000 0.000000 1.052999 2.014281 1.424964 -4.548610 1.038910 -5.902000 0.792534 -4.434155 2.371772 -0.018055 -0.009769 -0.014187 0.555161 -2.888679 4.073031 1.094333 3.754000 1.190783 0.000000 0.000000 0.000000 1.626247 -1.956437 1.311875 0.515816 -3.255309 -6.069363 -10.716050 23.646842 -22.624476 -5.836356 -32.759951 -2.738763 0.000000 0.000000 0.000000 -1.405200 -1.343535 0.919725 5.419071 0.723153 -9.373522 32.782681 -39.593606 -38.224139 -3.439937 35.260261 -6.855848 0.000000 0.000000 0.000000 
26.659834 36.637585 27.360415 -179.896036 2.535884 -179.998256 -4.080297 -0.204459 9.281371 -4.658330 -3.811485 -18.030298 10.402379 7.805040 11.823718 -7.243721 3.675660 15.159800 0.000000 0.000000 0.000000 1.042840 1.364287 7.754122 2.242183 -0.659595 -3.882152 -9.471017 -1.292746 7.319063 7.773099 8.001446 7.873475 0.000000 0.000000 0.000000 1.074635 2.038124 1.382148 -4.520290 1.056093 -5.935919 0.811069 -4.428314 2.353599 -0.037835 -0.000873 -0.010314 0.551662 -2.847716 4.113677 1.051791 3.703075 1.259438 0.000000 0.000000 0.000000 1.643550 -1.952924 1.387085 0.571081 -3.281198 -6.126631 -10.800348 23.663073 -22.759971 -5.900854 -32.822764 -2.646595 0.000000 0.000000 0.000000 -1.420251 -1.371422 0.962981 5.456797 0.695673 -9.398773 32.742008 -39.601242 -38.180170 -3.428554 35.345054 -6.837545 0.000000 0.000000 0.000000 
26.663626 36.635227 27.347435 -179.886965 2.457336 179.943028 -4.093811 -0.218540 9.321451 -4.638450 -3.898918 -18.035087 10.431721 7.749659 11.938481 -7.269320 3.688129 15.072083 0.000000 0.000000 0.000000 1.061940 1.358774 7.839899 2.254289 -0.597388 -3.864868 -9.498153 -1.357645 7.411460 7.735649 7.950114 7.826035 0.000000 0.000000 0.000000 1.063185 2.043204 1.452397 -4.480886 1.061463 -5.907542 0.834716 -4.413477 2.339349 -0.006938 0.005190 -0.024769 0.528438 -2.928365 4.101332 1.079272 3.712719 1.291765 0.000000 0.000000 0.000000 1.603000 -1.999767 1.388551 0.541495 -3.380854 -6.066597 -10.704542 23.757597 -22.610436 -5.882181 -32.931033 -2.619960 0.000000 0.000000 0.000000 -1.429670 -1.387328 0.908285 5.541887 0.678878 -9.193089 32.853487 -39.564984 -38.351871 -3.415487 35.372546 -6.865125 0.000000 0.000000 0.000000 
26.671574 36.630440 27.335236 -179.884739 2.479819 179.916240 -4.067417 -0.211012 9.358430 -4.632839 -4.057867 -18.032348 10.470049 7.774647 11.919714 -7.276327 3.756277 15.099262 0.000000 0.000000 0.000000 1.066499 1.429857 7.896335 2.282018 -0.655081 -3.875733 -9.504318 -1.372205 7.523194 7.723915 7.929771 7.753645 0.000000 0.000000 0.000000 1.054295 2.016030 1.501370 -4.429810 1.033537 -5.878349 0.853265 -4.434785 2.342126 0.001751 -0.028720 -0.047605 0.524992 -2.855445 4.074882 1.146540 3.729523 1.317268 0.000000 0.000000 0.000000 1.612555 -1.894238 1.366027 0.559902 -3.347594 -6.148394 -10.674495 23.718025 -22.562780 -5.905540 -33.005216 -2.522004 0.000000 0.000000 0.000000 -1.436811 -1.328327 0.965221 5.608416 0.720755 -9.273596 32.830677 -39.535280 -38.390799 -3.301871 35.501821 -6.751697 0.000000 0.000000 0.000000 
26.679350 36.626095 27.325499 -179.905557 2.501494 179.933957 -4.095208 -0.224891 9.321183 -4.606708 -4.187777 -18.046692 10.516235 7.696092 12.073812 -7.238446 3.835744 14.936961 0.000000 0.000000 0.000000 1.061850 1.481695 7.896106 2.281587 -0.682265 -3.925162 -9.448721 -1.369713 7.630901 7.698491 7.889671 7.698602 0.000000 0.000000 0.000000 1.042299 2.031436 1.546199 -4.370469 1.051545 -5.845501 0.851646 -4.403128 2.336561 -0.026021 -0.013365 -0.022526 0.585150 -2.868660 4.083987 1.218831 3.730037 1.385702 0.000000 0.000000 0.000000 1.649410 -1.943373 1.391048 0.532701 -3.423406 -6.038425 -10.715614 23.740993 -22.534818 -5.868434 -33.097290 -2.465306 0.000000 0.000000 0.000000 -1.373062 -1.340023 0.930870 5.745166 0.699624 -9.139916 32.889642 -39.471141 -38.588267 -3.224019 35.570205 -6.706297 0.000000 0.000000 0.000000 
26.689137 36.618774 27.309912 -179.960731 2.576517 179.919846 -4.128075 -0.274516 9.336055 -4.596754 -4.365401 -17.950958 10.470470 7.498594 12.087134 -7.006825 4.077242 14.910627 0.000000 0.000000 0.000000 1.007962 1.582601 7.897539 2.319034 -0.944383 -3.976640 -9.442317 -1.134922 7.785965 7.649840 7.804987 7.552139 0.000000 0.000000 0.000000 0.975733 2.025037 1.562270 -4.336492 1.052278 -5.794261 0.848593 -4.379461 2.370695 -0.024737 -0.015309 -0.007745 0.603402 -2.835534 4.047808 1.314637 3.713015 1.470465 0.000000 0.000000 0.000000 1.667901 -1.892161 1.338959 0.474474 -3.453778 -5.960750 -10.812744 23.735855 -22.531138 -5.877639 -33.121028 -2.364047 0.000000 0.000000 0.000000 -1.367357 -1.291831 0.939734 5.829784 0.700675 -9.002124 33.070519 -39.335138 -38.898129 -3.187998 35.667104 -6.730529 0.000000 0.000000 0.000000 
26.700821 36.610497 27.292955 -179.907415 2.650402 179.998748 -4.074299 -0.363104 9.288389 -4.606181 -4.466624 -17.937830 10.563798 7.347958 12.230675 -7.019274 4.110687 14.715197 0.000000 0.000000 0.000000 1.074817 1.619720 7.861925 2.358954 -0.989750 -4.093841 -9.500094 -1.020317 7.997749 7.682674 7.743788 7.412955 0.000000 0.000000 0.000000 0.974295 1.888994 1.530222 -4.261640 1.117738 -5.792929 0.891598 -4.297322 2.379490 0.006604 0.041164 -0.013256 0.576520 -2.729257 4.084365 1.370413 3.624210 1.568730 0.000000 0.000000 0.000000 1.638471 -1.860929 1.404445 0.386538 -3.542791 -5.975546 -10.903408 23.663730 -22.377984 -5.843570 -33.108232 -2.210758 0.000000 0.000000 0.000000 -1.389783 -1.294844 0.977776 5.958427 0.641958 -8.897618 33.215097 -39.264831 -39.148595 -3.122326 35.751331 -6.662840 0.000000 0.000000 0.000000 
26.710390 36.599880 27.277813 -179.903044 2.790736 179.976291 -4.058123 -0.336834 9.241576 -4.594392 -4.683655 -17.899708 10.622958 7.299106 12.453407 -6.941725 4.254191 14.514053 0.000000 0.000000 0.000000 1.089278 1.694302 7.859370 2.401287 -1.066847 -4.200547 -9.550020 -0.891251 8.297732 7.714362 7.666433 7.242853 0.000000 0.000000 0.000000 0.970118 2.036184 1.503004 -4.204401 1.097182 -5.682841 0.909821 -4.323085 2.432428 -0.002535 -0.016911 0.002363 0.588426 -2.709559 3.992933 1.513221 3.591121 1.722442 0.000000 0.000000 0.000000 1.646985 -1.803974 1.335617 0.333785 -3.638004 -5.851937 -11.074250 23.606623 -22.293963 -5.809957 -33.114304 -2.011923 0.000000 0.000000 0.000000 -1.391370 -1.239286 0.941627 6.108000 0.629697 -8.695284 33.362561 -39.121124 -39.515291 -3.057191 35.795242 -6.511810 0.000000 0.000000 0.000000 
26.724390 36.588196 27.261377 -179.898672 2.907017 -179.996563 -4.001246 -0.415442 9.232734 -4.609185 -4.890399 -17.830899 10.724855 7.381318 12.468436 -6.913317 4.390475 14.365001 0.000000 0.000000 0.000000 1.097901 1.711518 7.851191 2.425519 -1.106105 -4.394054 -9.585543 -0.798462 8.676089 7.709017 7.593351 7.026598 0.000000 0.000000 0.000000 0.952763 2.022722 1.583911 -4.156133 1.108812 -5.728659 0.934078 -4.300753 2.437423 -0.002631 -0.026200 -0.006397 0.617368 -2.580955 4.085116 1.602944 3.461500 1.899701 0.000000 0.000000 0.000000 1.673390 -1.727596 1.396077 0.236061 -3.724086 -5.728174 -11.277038 23.556206 -22.025388 -5.713033 -33.193381 -1.812376 0.000000 0.000000 0.000000 -1.342168 -1.149208 1.066771 6.185444 0.621430 -8.625326 33.603650 -39.058338 -39.796808 -3.050434 35.941658 -6.395815 0.000000 0.000000 0.000000 
